<svg width="25" height="24" viewBox="0 0 25 24" fill="none" xmlns="http://www.w3.org/2000/svg">
<g clip-path="url(#clip0_587_14230)">
<path d="M24.4727 12C24.4727 14.3734 23.7689 16.6935 22.4503 18.6668C21.1317 20.6402 19.2576 22.1783 17.0649 23.0866C14.8721 23.9948 12.4593 24.2324 10.1316 23.7694C7.80381 23.3064 5.66561 22.1635 3.98738 20.4853C2.30915 18.8071 1.16626 16.6689 0.703238 14.3411C0.240216 12.0133 0.477856 9.60051 1.38611 7.4078C2.29436 5.21509 3.83243 3.34094 5.80582 2.02236C7.77921 0.703788 10.0993 0 12.4727 0C15.6553 0 18.7075 1.26428 20.9579 3.51472C23.2084 5.76516 24.4727 8.8174 24.4727 12Z" fill="#F7931A" style="fill:#F7931A;fill:color(display-p3 0.9686 0.5765 0.1020);fill-opacity:1;"/>
<path fill-rule="evenodd" clip-rule="evenodd" d="M9.00138 5.47883L11.7592 6.21738L12.3756 3.91992L13.7545 4.2941L13.1621 6.49665L14.2868 6.79883L14.8803 4.57229L16.2832 4.94756L15.6788 7.1861C15.6788 7.1861 17.9697 7.69338 18.5087 9.55665C19.0476 11.4199 17.3239 12.3985 16.7916 12.4356C16.7916 12.4356 18.7988 13.5363 18.1094 15.7017C17.4199 17.8672 15.3036 18.2545 13.077 17.7581L12.4727 20.0796L11.0697 19.7043L11.6861 17.4188L10.5734 17.1156L9.95702 19.4174L8.56502 19.0432L9.18247 16.7523L6.35156 15.9886L7.06502 14.4046C7.06502 14.4046 7.86356 14.6228 8.16574 14.6948C8.46793 14.7668 8.66211 14.4526 8.7472 14.1385C8.83229 13.8243 10.1141 8.61738 10.2352 8.18865C10.3563 7.75992 10.3072 7.42501 9.79883 7.29301C9.29047 7.16101 8.59883 6.95483 8.59883 6.95483L9.00138 5.47883ZM11.7832 12.3745L11.0196 15.4105C11.0196 15.4105 14.8061 16.7774 15.2905 14.8541C15.7748 12.9308 11.7832 12.3745 11.7832 12.3745ZM12.1345 10.9345L12.8839 8.15265C12.8839 8.15265 16.1261 8.73301 15.7268 10.281C15.3276 11.829 13.4163 11.2356 12.1345 10.9345Z" fill="white" style="fill:white;fill-opacity:1;"/>
</g>
<defs>
<clipPath id="clip0_587_14230">
<rect width="24" height="24" fill="white" style="fill:white;fill-opacity:1;" transform="translate(0.472656)"/>
</clipPath>
</defs>
</svg>
